<svg preserveAspectRatio="none" overflow="visible" style="display: block;" width="216.22" height="39" viewBox="0 0 216.22 39" fill="none" xmlns="http://www.w3.org/2000/svg">
<g id="Group 1565010">
<path id="Vector" d="M39.0001 11.4376L27.5625 0L19.5001 6.24729L11.4376 0L7.62939e-05 11.4376L6.24737 19.5L7.62939e-05 27.5624L11.4376 39L19.5001 32.7527L27.5625 39L39.0001 27.5624L32.7455 19.5L39.0001 11.4376ZM19.5438 32.2716L6.77951 19.5073L19.5438 6.74299L32.3081 19.5073L19.5438 32.2716Z" fill="#8046F3"/>
<path id="Vector_2" d="M77.5329 28.32L75.5137 26.3007C74.6389 27.8607 73.6183 28.7865 72.7363 28.7865C69.0331 28.7865 67.8084 21.8102 67.546 16.7293C67.6043 16.8605 67.6845 16.9844 67.7939 17.0938L69.3903 18.6902L74.3619 23.6618C74.792 24.0919 75.4845 24.0919 75.9146 23.6618L77.5621 22.0143L71.8105 16.2628L74.894 13.1792C75.3241 12.7491 75.3241 12.0566 74.894 11.6265L73.2466 9.97901L67.7939 15.4317C67.6627 15.5629 67.5679 15.7233 67.5096 15.891C67.495 15.4171 67.4877 14.9652 67.4877 14.5497V8.65957C67.4877 8.01079 66.9628 7.48593 66.314 7.48593H52.1574V10.0956C52.1574 10.6424 52.5948 11.0798 53.1415 11.0798H63.9011V14.5497C63.9011 21.2125 65.4247 32.3876 72.7436 32.3876C74.5514 32.3876 76.2208 31.4254 77.6204 29.6248C77.9266 29.2312 77.8901 28.6771 77.5402 28.32H77.5329Z" fill="black"/>
<path id="Vector_3" d="M105.534 13.6463L102.545 8.47058C102.195 7.85824 101.539 7.48646 100.839 7.48646H98.3532C98.2001 7.48646 98.1053 7.65413 98.1855 7.78534L99.7601 10.519C99.7601 10.519 99.7455 10.519 99.7382 10.519H92.7474V6.62627H88.9567V10.519H82.1773V12.9683C82.1773 13.5151 82.6219 13.9524 83.1614 13.9524H88.9567V18.6179H80.2091V21.0672C80.2091 21.6139 80.6538 22.0513 81.1932 22.0513H88.9567V32.3954H92.7474V22.0513H101.094L100.999 24.8068C100.97 25.6524 100.278 26.3231 99.432 26.3231H95.656V28.7724C95.656 29.3192 96.1007 29.7566 96.6401 29.7566H100.365C102.632 29.7566 104.491 27.9633 104.571 25.6962L104.775 19.8425C104.797 19.1792 104.265 18.6252 103.602 18.6252H100.686L100.897 12.4872L101.174 12.9756C101.524 13.588 102.173 13.9597 102.88 13.9597H105.366C105.519 13.9597 105.614 13.7921 105.534 13.6609V13.6463ZM97.0848 18.6106H92.7547V13.9452H97.2524L97.0921 18.6106H97.0848Z" fill="black"/>
<path id="Vector_4" d="M143.353 26.951L135.699 28.1539L136.027 30.246C136.122 30.8656 136.705 31.2884 137.325 31.1864L142.741 30.3335C143.36 30.2387 143.783 29.6555 143.681 29.0359L143.353 26.9438V26.951Z" fill="black"/>
<path id="Vector_5" d="M155.431 28.1449V25.455H158.376C159.01 25.455 159.521 24.9447 159.521 24.3105V22.2329H155.424V19.8127H158.369C159.003 19.8127 159.513 19.3024 159.513 18.6682V16.5907H155.417V13.9008H158.967C159.586 13.9008 160.097 13.3978 160.097 12.7709V10.5475H155.562L154.258 7.57329L152.18 8.4845C151.684 8.70319 151.458 9.27908 151.677 9.77478L152.02 10.5548H149.585C149.84 9.40301 149.986 8.4918 150.059 8.04712L146.851 7.38376C146.45 10.0372 145.109 15.0307 143.316 17.48C143.95 15.8617 144.38 14.3892 144.584 13.7258L141.603 12.8219C141.428 13.5363 141.143 14.3309 140.786 15.1692L139.204 15.2129C140.188 13.8279 142.864 8.9146 142.988 7.95235L139.904 7.04114C139.102 10.0955 136.186 14.1268 135.567 15.1327C135.472 15.2858 135.428 15.4681 135.428 15.643L135.501 17.8226C135.516 18.2527 135.873 18.5881 136.303 18.5735L139.124 18.4787C138.147 20.1918 137.017 21.8393 135.968 23.0858C135.8 23.2899 135.727 23.5596 135.764 23.8148L136.062 25.7247C136.135 26.2131 136.595 26.5411 137.083 26.4682L142.842 25.5643C143.33 25.4914 143.658 25.0322 143.585 24.5438L143.221 22.2183L140.451 22.5901C141.399 21.5841 142.222 20.0533 142.886 18.5224L144.074 20.0241C144.314 20.323 144.701 20.4324 145.043 20.3303V32.2709H148.222V31.4982H159.142C159.783 31.4982 160.308 30.9806 160.308 30.3318V28.1449H155.431ZM151.918 22.2329H148.229V19.8127H151.918V22.2329ZM151.918 13.9008V16.5907H148.229V15.1911C148.389 14.761 148.542 14.3309 148.681 13.9008H151.918ZM148.229 25.455H151.918V28.1449H148.229V25.455Z" fill="black"/>
<path id="Vector_6" d="M182.942 26.6733L185.377 24.88C185.807 24.5592 185.902 23.9469 185.581 23.5168L184.145 21.5777L180.172 24.5082C179.174 23.5387 178.313 22.4306 177.708 21.1914H185.683C186.31 21.1914 186.813 20.6884 186.813 20.0615V18.1151H177.169V16.6936H184.524C185.115 16.6936 185.596 16.2125 185.596 15.622V13.9381H177.169V12.5166H185.683C186.31 12.5166 186.813 12.0136 186.813 11.3867V9.44036H177.169V7.23157H173.407V9.44036H163.763V11.3867C163.763 12.0136 164.266 12.5166 164.893 12.5166H173.407V13.9381H164.981V15.622C164.981 16.2125 165.462 16.6936 166.052 16.6936H173.407V18.1151H163.763V20.0615C163.763 20.6884 164.266 21.1914 164.893 21.1914H170.922C168.356 23.1159 164.354 25.1133 162.713 25.4996L163.719 27.8177C163.909 28.2333 164.368 28.4082 164.82 28.3134C165.418 28.1968 166.89 27.4824 168.582 26.5056V31.1491C168.582 31.8635 169.245 32.3884 169.945 32.228L175.631 30.9013C176.09 30.7919 176.382 30.34 176.272 29.8734L175.777 27.7011L172.154 28.5321V24.2531C172.948 23.7063 173.706 23.145 174.34 22.6129C178.86 30.1796 185.29 31.8198 185.734 31.9583C186.412 32.1697 186.704 31.9729 186.944 31.5501L188.249 29.1226C186.697 28.6561 184.765 27.8323 182.935 26.6587L182.942 26.6733Z" fill="black"/>
<path id="Vector_7" d="M110.06 21.3814C123.137 18.6331 127.876 13.5085 129.224 12.2619C129.407 12.0943 129.516 11.8537 129.516 11.6058V10.2281C129.516 9.60846 128.998 9.10547 128.364 9.10547H121.023C121.344 8.73369 121.628 8.3692 121.862 8.0193L118.253 7.09351C116.825 9.6522 111.357 12.6847 109.163 13.0857L110.337 15.1632C110.555 15.5423 111.015 15.71 111.43 15.5714C112.48 15.2288 113.581 14.7258 114.674 14.1208C114.696 14.2229 114.74 14.3176 114.798 14.4124L116.096 16.4243C112.917 17.6344 109.666 18.5311 107.887 18.4873L108.893 20.8638C109.097 21.3012 109.586 21.4834 110.067 21.3814H110.06ZM117.364 12.3931C117.466 12.3202 117.561 12.2473 117.663 12.1744H124.18C123.32 13.0419 121.402 14.1281 119.143 15.1559L117.364 12.3931Z" fill="black"/>
<path id="Vector_8" d="M131.434 19.2812H125.944C126.462 18.8292 126.899 18.3991 127.235 17.9982L124.042 16.6714C121.454 19.9299 114.244 22.5178 111.729 23.0354L112.735 25.0327C112.925 25.4118 113.333 25.6232 113.749 25.5576C114.944 25.3754 116.388 24.9015 117.889 24.2382C117.904 24.3912 117.948 24.5443 118.035 24.6828L119.435 26.8625C115.476 28.4006 111.205 29.4066 108.267 29.3337L108.93 31.7247C109.134 32.1694 109.615 32.286 110.104 32.2569C116.46 31.9069 127.009 28.5537 132.039 22.9625C132.381 22.5761 132.571 22.0804 132.571 21.5628V20.4111C132.571 19.7841 132.061 19.2812 131.441 19.2812H131.434ZM122.453 25.5576L120.703 22.8385C120.995 22.6782 121.279 22.5105 121.563 22.3501L127.555 22.372C126.258 23.4946 124.465 24.5808 122.453 25.5576Z" fill="black"/>
<path id="Vector_9" d="M198.623 19.9441L199.884 17.9686L196.953 16.0952V14.5643H198.164C198.827 14.5643 199.359 14.0322 199.359 13.3688V11.1454H196.953V7.2819H193.535V11.1454H190.859V13.3688C190.859 14.0322 191.391 14.5643 192.055 14.5643H193.367C192.864 17.5167 191.552 20.8481 189.992 22.5466L191.165 24.8793C191.384 25.3167 191.996 25.375 192.288 24.9813C192.733 24.3836 193.148 23.6838 193.535 22.9402V32.2638H196.953V19.966L197.354 20.2211C197.777 20.4909 198.346 20.3669 198.616 19.9441H198.623Z" fill="black"/>
<path id="Vector_10" d="M210.126 18.0133C212.619 15.6878 214.142 13.3333 214.478 12.7428C214.551 12.6189 214.587 12.4731 214.587 12.3273V10.4684C214.587 9.89979 214.128 9.43325 213.552 9.43325H205.796C205.992 8.88652 206.124 8.44185 206.16 8.15026L203.186 7.23905C202.369 10.4903 200.394 13.9529 198.36 15.7972L199.825 17.2989C200.183 17.6415 200.751 17.6561 201.116 17.3207C201.604 16.8834 202.122 16.2491 202.632 15.5129C203.179 16.2637 203.9 17.0947 204.746 17.9185C203.018 18.9682 200.882 19.8794 198.243 20.4334L199.096 22.5985C199.279 23.0067 199.723 23.1379 200.168 23.0796C200.292 23.065 200.409 23.0505 200.532 23.0286V31.3389C200.532 31.8419 200.941 32.2428 201.436 32.2428H213.224C213.727 32.2428 214.128 31.8346 214.128 31.3389V23.9106C214.128 23.5462 213.953 23.2181 213.683 23.014C213.771 23.0286 213.851 23.0504 213.938 23.065C214.427 23.1525 214.915 23.065 215.156 22.6349L216.22 20.4699C214.193 20.0908 212.043 19.2234 210.126 18.0278V18.0133ZM204.746 12.5387H210.272C209.71 13.4499 208.784 14.6891 207.399 15.943C206.284 14.9078 205.365 13.7561 204.746 12.5387ZM210.687 28.9333H203.973V26.0757H210.687V28.9333ZM201.764 22.7734C203.893 22.2559 205.796 21.3009 207.443 20.171C209.025 21.2936 210.826 22.2413 212.721 22.7734H201.764Z" fill="black"/>
</g>
</svg>
