<svg preserveAspectRatio="none" overflow="visible" style="display: block;" width="170" height="170" viewBox="0 0 170 170" fill="none" xmlns="http://www.w3.org/2000/svg">
<g id="icon_file-bitable-v2_outlined" opacity="0.05">
<g id="Union">
<path d="M95.7288 58.0036C98.5487 55.8191 102.559 56.0762 105.081 58.5985L118.459 71.9835C120.981 74.5058 121.238 78.5089 119.054 81.3288L110.739 92.0575L119.054 102.793C121.236 105.613 120.981 109.617 118.459 112.139L105.081 125.517C102.559 128.039 98.5487 128.296 95.7288 126.111L85 117.797L74.2851 126.111C71.4659 128.297 67.4561 128.045 64.9329 125.524L51.5409 112.139C49.0173 109.617 48.7613 105.607 50.946 102.786L59.2607 92.0575L50.946 81.3288C48.763 78.5089 49.0193 74.5051 51.5409 71.9835L64.9329 58.5985C67.4562 56.0768 71.4659 55.8245 74.2851 58.0105L85 66.3182L95.7288 58.0036ZM59.2607 92.0575L85 117.797L110.739 92.0575L85 66.3182L59.2607 92.0575Z" fill="#8046F3"/>
<path d="M107.336 10.6269C112.652 10.6765 117.763 13.1866 121.648 16.8248L149.089 42.5365C153.388 46.565 155.832 52.207 155.833 58.1073V116.759C155.832 140.293 136.804 159.377 113.333 159.377H56.6667C33.1956 159.377 14.1684 140.293 14.1667 116.759V53.2306C14.1705 29.544 33.4382 10.4071 57.061 10.6269H107.336ZM56.9295 24.8281C41.1818 24.6816 28.3371 37.4406 28.3333 53.2306V116.759C28.335 132.448 41.0197 145.169 56.6667 145.169H113.333C128.98 145.169 141.665 132.448 141.667 116.759V58.1073C141.666 57.5244 141.584 56.9483 141.445 56.3918H124.311L122.865 56.3158C115.722 55.5896 110.146 49.5379 110.144 42.1837V25.9764C110.144 24.9994 109.068 24.8471 108.097 24.8281H56.9295Z" fill="#8046F3"/>
</g>
</g>
</svg>
